# xmcd
#
# Track frame offsets: 
#        150
#        15998
#        32476
#        49104
#        65119
#        78459
#        99692
#        116136
#        133847
#        149705
#        165234
#
# Disc length: 2412 seconds
#
# Revision: 0
# Processed by: cddbd v1.5.2PL0 Copyright (c) Steve Scherf et al.
# Submitted via: ExactAudioCopy v0.99pb4
#
DISCID=97096a0b
DTITLE=Sara Varga - Faith, hope and love
DYEAR=2008
DGENRE=Pop
TTITLE0=Born to fly
TTITLE1=Always Have
TTITLE2=So this is it
TTITLE3=Heal my heart
TTITLE4=Turn back time
TTITLE5=Tears for nothing
TTITLE6=Far far away
TTITLE7=I wouldn't mind
TTITLE8=Lying witch
TTITLE9=Out of reach
TTITLE10=I don't know
EXTD=
EXTT0=
EXTT1=
EXTT2=
EXTT3=
EXTT4=
EXTT5=
EXTT6=
EXTT7=
EXTT8=
EXTT9=
EXTT10=
PLAYORDER=
